<?xml version="1.0" encoding="utf-8" ?><svg xmlns="http://www.w3.org/2000/svg" xmlns:xlink="http://www.w3.org/1999/xlink" width="1024" height="1024" viewBox="0 0 1024 1024"><path fill="#111B3F" d="M485.19 1013.76C476.339 1009.82 467.962 1003.53 462.496 995.358C444.131 967.894 436.67 930.065 428.477 898.321C424.119 881.436 419.854 864.817 414.481 848.55C404.566 818.814 391.346 790.284 375.069 763.496C333.771 696.456 281.554 656.811 212.198 621.492C182.785 605.975 152.786 591.279 127.532 569.268C97.036 542.788 76.2043 505.28 73.6488 464.633C72.9512 453.538 72.3301 429.533 87.5036 427.605C101.25 425.859 116.995 426.51 130.999 426.452L227.202 426.419L228.951 426.472C238.412 426.844 247.863 427.439 257.296 428.258C321.262 433.474 387.839 456.772 430.222 507.119C451.216 532.312 466.243 561.926 474.177 593.745C478.827 612.913 481.95 632.419 483.516 652.08C485.382 677.097 484.777 705.402 485.117 730.756C485.605 781.5 485.732 832.246 485.499 882.992L485.628 970.505C485.603 982.923 486.209 1001.94 485.19 1013.76Z"/><path fill="#1C264A" d="M383.217 649.866C390.157 650.071 387.26 654.983 385.716 659.442C381.862 658.848 380.995 652.988 383.217 649.866Z"/><path fill="#1C264A" d="M400.283 776.298C401.154 775.794 402.229 775.798 403.097 776.308C403.964 776.818 404.49 777.756 404.474 778.763C404.457 779.769 403.9 780.689 403.016 781.17C401.673 781.9 399.993 781.416 399.245 780.083C398.497 778.75 398.959 777.063 400.283 776.298Z"/><path fill="#1C264A" d="M424.272 716.363C425.453 716.735 425.371 716.701 426.245 717.584L426.195 718.96C424.895 720.976 424.473 721.166 422.531 722.688L421.418 722.064C420.346 720.256 420.512 721.178 420.689 719.248C421.811 717.4 422.23 717.371 424.272 716.363Z"/><path fill="#1C264A" d="M434.284 746.704C436.094 747.274 437.403 747.716 438.462 749.305C438.731 751.4 438.622 750.787 437.613 753.019L436.257 753.022C433.355 751.427 432.992 749.517 434.284 746.704Z"/><path fill="#1C264A" d="M256.194 572.3C257.849 572.767 258.414 573.257 259.185 574.599C258.753 576.843 258.785 576.229 256.994 578.199C254.991 578.194 254.483 578.064 253.86 576.262C254.277 574.128 254.633 573.969 256.194 572.3Z"/><path fill="#1C264A" d="M397.785 766.139C399.656 766.307 399.869 766.258 400.667 767.727C400.459 769.562 399.574 770.412 398.466 771.915C396.653 772.101 397.424 772.321 396.02 771.476C395.222 769.224 396.428 767.777 397.785 766.139Z"/><path fill="#1C264A" d="M180.635 494.232C181.866 493.668 183.322 494.211 183.882 495.445C184.442 496.678 183.894 498.132 182.659 498.688C181.429 499.242 179.983 498.697 179.425 497.469C178.868 496.241 179.408 494.793 180.635 494.232Z"/><path fill="#1C264A" d="M369.137 623.832C370.859 624.226 370.918 624.435 371.319 625.977C370.773 627.973 370.548 628.052 369.005 629.559C367.515 628.54 367.176 628.2 366.651 626.708C367.425 624.748 367.243 625.323 369.137 623.832Z"/><path fill="#1C264A" d="M328.239 500.19C330.14 500.737 331.795 501.526 332.359 503.495L331.819 504.375C329.519 504.25 329.604 504.489 328.03 503.32C327.556 501.8 327.751 501.768 328.239 500.19Z"/><path fill="#111B3F" d="M539.073 1013.27C538.328 1002.53 538.47 987.846 538.375 976.75C538.328 955.401 538.392 934.052 538.567 912.704L538.667 781.657C538.623 753.174 538.93 724.69 539.586 696.214C540.347 662.533 541.799 625.356 550.336 592.562C559.787 556.312 578.487 523.136 604.606 496.281C662.563 437.814 748.099 425.763 826.544 426.423C833.176 426.478 839.845 426.375 846.482 426.357L850.628 426.424C854.085 426.423 858.758 426.567 862.115 426.383C875.665 426.454 892.052 426.929 905.325 426.428C910.343 426.555 919.862 426.87 924.715 426.449C933.533 426.69 944.848 427.009 948.066 437.124C953.543 454.336 950.029 475.853 945.533 492.852C921.699 582.963 828.732 607.204 759.064 651.652C725.005 673.568 692.609 703.087 667.729 735.762C631.799 782.97 611.33 837.799 596.196 894.556C587.13 928.561 575.825 999.443 539.073 1013.27Z"/><path fill="#1C264A" d="M799.644 468.773C800.36 468.772 801.658 468.677 802.183 469.074C804.89 471.123 802.944 478.801 801.899 480.922C800.572 480.911 800.932 480.954 799.691 480.664C797.574 477.885 798.29 471.792 799.644 468.773Z"/><path fill="#1C264A" d="M678.64 581.896C681.065 581.749 681.885 581.505 683.532 583.434C683.458 585.536 683.566 584.797 682.321 586.757L679.696 587.19C678.079 586.619 678.667 587.12 677.823 585.694C677.833 583.771 677.988 583.656 678.64 581.896Z"/><path fill="#1C264A" d="M738.366 543.184C739.234 542.598 740.358 542.552 741.271 543.066C742.184 543.579 742.729 544.563 742.68 545.609C742.63 546.655 741.995 547.584 741.037 548.009C739.726 548.59 738.188 548.074 737.493 546.819C736.798 545.564 737.177 543.987 738.366 543.184Z"/><path fill="#1C264A" d="M869.138 504.174C870.772 504.983 871.044 505.476 871.794 507.029C871.959 509.212 871.71 509.429 870.718 511.491L869.544 511.272C867.066 509.045 867.627 506.843 869.138 504.174Z"/><path fill="#1C264A" d="M838.967 546.118C839.735 545.546 840.757 545.445 841.622 545.858C842.487 546.27 843.052 547.127 843.09 548.085C843.128 549.042 842.633 549.942 841.804 550.422C840.621 551.107 839.108 550.75 838.355 549.609C837.603 548.467 837.871 546.936 838.967 546.118Z"/><path fill="#1C264A" d="M860.899 470.119C862.841 470.643 863.34 470.986 864.546 472.545C864.935 474.807 865.095 473.722 863.776 475.868C862.041 475.477 860.674 474.878 859.745 473.319C859.753 471.29 859.642 472.028 860.899 470.119Z"/><path fill="#1C264A" d="M851.5 529.656C853.729 530.322 852.978 529.677 854.13 531.255C854.295 533.022 853.496 534.17 852.712 535.814C851.172 534.805 850.74 534.684 849.964 532.991C850.145 530.929 850.088 531.57 851.5 529.656Z"/><defs><linearGradient id="gradient_0" gradientUnits="userSpaceOnUse" x1="206.47716" y1="146.86118" x2="431.33594" y2="298.17407"><stop offset="0" stop-color="#0C173B"/><stop offset="1" stop-color="#263652"/></linearGradient></defs><path fill="url(#gradient_0)" d="M474.342 9.1008C475.947 9.03872 476.352 8.9451 477.94 9.28176C478.025 9.42246 478.127 9.55418 478.195 9.70386C479.615 12.8429 479.062 134.115 478.471 148.687C477.913 162.459 476.51 176.507 474.752 190.188C472.589 207.018 468.356 223.604 463.052 239.697C446.425 290.142 413.115 329.023 365.565 352.94C297.896 386.976 216.855 387.914 142.668 387.493C127.04 387.404 96.4723 388.187 82.4224 383.546C70.3442 376.527 67.0613 338.021 82.1911 336.311C105.535 333.672 127.743 331.073 150.562 324.613C216.05 306.072 278.185 268.581 322.392 216.537C338.184 197.651 352.016 177.21 363.675 155.529C376.088 132.77 385.82 109.305 396.401 85.7521C409.284 57.0748 443.096 17.7433 474.342 9.1008Z"/><defs><linearGradient id="gradient_1" gradientUnits="userSpaceOnUse" x1="855.01996" y1="144.5672" x2="577.01892" y2="275.53113"><stop offset="0" stop-color="#0B1439"/><stop offset="1" stop-color="#233350"/></linearGradient></defs><path fill="url(#gradient_1)" d="M840.783 313.387C858.114 322.087 899.765 330.601 920.033 333.656C927.319 334.755 935.011 334.816 942.178 336.397C944.476 336.904 946.317 337.812 947.83 339.647C952.678 345.525 951.531 358.811 950.579 365.927C949.777 371.923 947.988 379.078 942.773 382.75C932.715 389.832 831.678 387.47 812.908 386.777C802.636 386.3 792.373 385.648 782.123 384.821C764.114 383.346 746.206 380.822 728.49 377.264C670.209 365.071 615.309 336.646 582.348 285.506C550.023 235.353 547.214 181.494 546.897 124.011L546.561 71.7234L546.596 34.4206C546.6 28.2456 546.282 15.6616 547.456 10.0805C551.844 8.64002 560.832 14.0662 564.847 16.1971C620.326 45.6396 632.539 103.821 660.03 154.38C696.787 221.98 752.573 275.928 823.605 306.407C829.024 308.711 835.266 311.551 840.783 313.387Z"/><path fill="#030002" fill-opacity="0.011764706" d="M816.617 128.488C818.376 129.247 818.975 129.084 819.485 130.364L818.969 130.686C817.448 130.169 817.788 130.083 816.617 128.488Z"/></svg>