<?xml version="1.0" encoding="utf-8" ?><svg xmlns="http://www.w3.org/2000/svg" xmlns:xlink="http://www.w3.org/1999/xlink" width="1024" height="1024" viewBox="0 0 1024 1024"><path fill="white" d="M107.286 426.731C145.135 426.164 183.398 426.318 220.825 426.613C311.78 427.557 404.835 454.61 452.029 538.832C485.867 599.22 484.428 659.375 485.052 726.001C485.507 759.11 485.666 792.222 485.53 825.334L485.573 923.613C485.727 952.724 486.206 984.948 485.422 1013.96C477.756 1011.32 472.205 1006.32 466.556 1000.75C453.664 985.518 447.765 967.958 441.97 949.208C433.113 920.552 427.328 891.14 418.655 862.405C401.467 805.46 373.587 751.84 332.91 708.08C298.289 670.858 255.796 644.005 210.896 621.025C176.966 603.659 141.773 585.527 115.21 557.698C90.3512 531.654 74.9175 497.725 73.048 461.661C72.5723 452.483 72.8433 439.582 79.2219 432.217C84.8715 425.925 99.4118 426.943 107.286 426.731Z"/><path fill="white" d="M809.249 426.723C833.21 426.06 857.903 426.51 882.144 426.508C899.841 427.102 921.83 425.211 938.97 428.447C957.644 431.972 950.006 476.037 947.244 488.002C926.708 576.962 840.289 603.972 770.411 644.832C694.834 689.025 639.071 761.192 611.626 844.049C602.117 872.026 596.351 894.398 589.312 922.885C587.914 927.179 586.931 932.646 585.543 937.279C577.782 963.179 569.867 994.468 546.029 1010.37C544.027 1011.71 542.048 1013.04 539.757 1012.55C537.951 1009.65 538.513 955.257 538.52 946.906L538.581 842.566L539.009 742.636C539.208 695.826 538.813 639.728 550.203 594.66C558.882 559.904 576.055 527.847 600.182 501.366C655.373 441.94 732.203 429.663 809.249 426.723Z"/><path fill="white" d="M476.003 9.10306C477.363 9.57362 476.768 9.22988 477.699 10.3133C478.963 16.3081 478.543 27.6153 478.53 34.0841L478.499 67.4984C478.544 137.006 482.884 208.741 449.359 272.293C423.157 321.963 378.005 352.56 325.437 369.079C308.393 374.414 290.934 378.32 273.241 380.757C256.349 383.116 239.379 384.889 222.364 386.074C189.52 388.115 155.785 387.652 122.877 387.205C113.086 387.072 88.8996 386.969 80.762 382.718C76.2899 378.89 73.9102 373.875 73.143 368.071C68.3949 332.148 77.9934 337.737 104.744 334.01C213.931 319.709 309.739 254.162 362.632 157.576C369.009 145.808 374.961 133.814 380.475 121.617C384.949 111.563 389.358 101.463 393.808 91.3831C408.761 57.5156 434.407 27.0556 468.477 11.4129C471.069 10.2227 473.165 9.49811 476.003 9.10306Z"/><path fill="white" d="M547.606 9.84354C551.658 9.60102 554.147 10.952 557.721 12.5546C598.297 30.709 621.913 69.6761 638.413 109.084C645.492 125.991 652.325 140.223 661.127 156.366C672.986 177.917 687.004 198.208 702.964 216.926C761.984 285.577 840.498 324.226 930.14 335.033C941.348 336.384 951.042 335.612 951.298 349.821C951.503 361.201 952.292 372.675 944.435 381.948C940.935 384.373 936.083 385.73 931.827 385.91C892.178 387.585 850.798 388.477 811.152 386.719C796.956 386.074 782.784 384.985 768.657 383.453C677.597 373.657 592.658 334.779 561.647 241.932C547.754 200.338 547.182 165.496 546.929 122.316C546.651 103.44 546.534 84.5609 546.577 65.6823L546.673 32.9504C546.683 27.9165 546.441 14.2209 547.606 9.84354Z"/></svg>